<svg width="252" height="40" viewBox="0 0 252 40" fill="none" xmlns="http://www.w3.org/2000/svg">
<path d="M18.9482 20.1673C18.9482 23.9279 17.8779 26.8074 15.7372 28.8057C13.5966 30.804 10.507 31.8036 6.46836 31.8045H0V8.96875H7.17013C10.8975 8.96875 13.7923 9.95299 15.8547 11.9215C17.917 13.8899 18.9482 16.6385 18.9482 20.1673ZM13.9181 20.2933C13.9181 15.3889 11.7518 12.9366 7.41925 12.9362H4.84308V27.8058H6.92015C11.5845 27.8058 13.9172 25.3016 13.9181 20.2933Z" fill="#252525"/>
<path d="M30.2496 32.1181C27.4372 32.1181 25.2397 31.3418 23.6572 29.7893C22.0747 28.2368 21.2835 26.0399 21.2837 23.1987C21.2837 20.2723 22.0153 18.0096 23.4785 16.4108C24.9417 14.8119 26.9642 14.013 29.5461 14.0142C32.0139 14.0142 33.935 14.7173 35.3093 16.1234C36.6835 17.5296 37.371 19.4717 37.3718 21.9496V24.2601H26.1102C26.1615 25.6123 26.562 26.6689 27.3117 27.4298C28.0613 28.1906 29.1135 28.5707 30.4682 28.5699C31.519 28.5699 32.5131 28.4607 33.4505 28.2424C34.3879 28.0241 35.3666 27.6754 36.3864 27.1963V30.8836C35.5391 31.3055 34.6417 31.618 33.7156 31.8136C32.7687 32.0154 31.6134 32.1169 30.2496 32.1181ZM29.5777 17.4038C28.5681 17.4038 27.7764 17.7238 27.2025 18.3638C26.6286 19.0038 26.3009 19.9125 26.2194 21.0899H32.9055C32.8843 19.9131 32.577 19.0044 31.9837 18.3638C31.3905 17.7233 30.5888 17.4033 29.5789 17.4038" fill="#252525"/>
<path d="M45.0814 7.5H40.3179V31.804H45.0814V7.5Z" fill="#252525"/>
<path d="M64.9902 23.0427C64.9902 25.8845 64.2404 28.1078 62.7407 29.7125C61.241 31.3173 59.1528 32.1195 56.4761 32.1191C54.8011 32.1191 53.3225 31.7516 52.0404 31.0166C50.7583 30.2816 49.7745 29.2266 49.0891 27.8518C48.4008 26.4779 48.0572 24.8746 48.0581 23.0418C48.0581 20.1884 48.8029 17.9699 50.2925 16.3865C51.7821 14.803 53.8748 14.0118 56.5705 14.0129C58.2471 14.0129 59.7257 14.3777 61.0062 15.1072C62.2868 15.8367 63.271 16.8833 63.9589 18.2469C64.6459 19.6109 64.9896 21.2092 64.9902 23.0418M52.9157 23.0418C52.9157 24.7697 53.1993 26.0767 53.7666 26.9628C54.3338 27.8489 55.2579 28.2909 56.5388 28.2888C57.8101 28.2888 58.7243 27.8491 59.2815 26.9696C59.8386 26.0902 60.1172 24.7809 60.1172 23.0418C60.1172 21.3139 59.8359 20.0174 59.2732 19.1522C58.7105 18.287 57.7889 17.8551 56.5083 17.8564C55.2388 17.8564 54.3224 18.2856 53.7591 19.1439C53.1959 20.0023 52.9145 21.3018 52.9149 23.0427" fill="#252525"/>
<path d="M67.7637 9.82876C67.7637 8.27625 68.6277 7.5 70.3558 7.5C72.0839 7.5 72.9485 8.27625 72.9497 9.82876C72.9497 10.567 72.7334 11.1424 72.3009 11.5549C71.8684 11.9675 71.2201 12.1728 70.3561 12.1709C68.6278 12.1709 67.7638 11.3902 67.764 9.82876H67.7637ZM72.731 31.8052H67.9675V14.3409H72.7307L72.731 31.8052Z" fill="#252525"/>
<path d="M84.1264 28.3217C84.9591 28.3217 85.9588 28.1396 87.1256 27.7755V31.3208C85.9387 31.8529 84.481 32.1183 82.7525 32.1169C80.8477 32.1169 79.4605 31.6352 78.591 30.6718C77.7214 29.7084 77.2867 28.2642 77.2867 26.3392V17.9192H75.0063V15.9048L77.6276 14.3123L79.0032 10.6262H82.0485V14.3423H86.9369V17.9192H82.0476V26.3386C82.0476 27.0142 82.238 27.5156 82.6177 27.8382C82.9974 28.1609 83.5013 28.3228 84.1256 28.3228" fill="#252525"/>
<path d="M97.0509 28.3216C97.8836 28.3216 98.8833 28.1396 100.05 27.7755V31.3208C98.8632 31.8528 97.4056 32.1182 95.6773 32.1169C93.7721 32.1169 92.385 31.6352 91.5158 30.6717C90.6466 29.7083 90.2118 28.2641 90.2115 26.3392V17.9192H87.9312V15.9048L90.5535 14.3109L91.9288 10.6248H94.9744V14.3422H99.8637V17.9192H94.9739V26.3386C94.9739 27.0141 95.164 27.5155 95.5439 27.8382C95.9239 28.1608 96.4276 28.3228 97.0518 28.3228" fill="#252525"/>
<path d="M110.524 32.1181C107.712 32.1181 105.515 31.3418 103.932 29.7893C102.35 28.2368 101.558 26.0399 101.559 23.1987C101.559 20.2723 102.29 18.0096 103.753 16.4108C105.217 14.8119 107.239 14.013 109.821 14.0142C112.289 14.0142 114.21 14.7173 115.584 16.1234C116.959 17.5296 117.646 19.4715 117.647 21.949V24.2601H106.385C106.436 25.6123 106.837 26.6689 107.587 27.4298C108.336 28.1906 109.388 28.5707 110.743 28.5699C111.794 28.5699 112.788 28.4607 113.726 28.2424C114.663 28.0241 115.642 27.6754 116.662 27.1963V30.8836C115.814 31.3055 114.917 31.618 113.991 31.8136C113.044 32.0154 111.888 32.1169 110.524 32.1181ZM109.853 17.4038C108.843 17.4038 108.051 17.7238 107.477 18.3638C106.904 19.0038 106.576 19.9125 106.494 21.0899H113.179C113.158 19.9131 112.851 19.0044 112.257 18.3638C111.664 17.7233 110.863 17.4033 109.853 17.4038Z" fill="#252525"/>
<path d="M123.529 32.5C125.966 32.5 127.941 30.5248 127.941 28.0883C127.941 25.6517 125.966 23.6765 123.529 23.6765C121.093 23.6765 119.118 25.6517 119.118 28.0883C119.118 30.5248 121.093 32.5 123.529 32.5Z" fill="#86BC25"/>
<rect x="147.941" y="7.19995" width="2" height="25.6" fill="#D9D9D9"/>
<path d="M172.188 9.4368V30H174.521V9.4368H172.188ZM185.473 9.0336C183.342 9.0336 181.585 9.4944 180.232 10.416C178.705 11.3952 177.957 12.8064 177.957 14.592C177.957 16.32 178.734 17.6448 180.318 18.5664C180.981 18.912 182.565 19.488 185.041 20.2368C187.345 20.8992 188.814 21.3888 189.39 21.7344C190.744 22.4544 191.435 23.4624 191.435 24.7584C191.435 25.8528 190.917 26.7168 189.88 27.3504C188.843 27.984 187.461 28.3008 185.79 28.3008C183.947 28.3008 182.565 27.8976 181.614 27.1488C180.577 26.3136 179.944 24.9888 179.742 23.2032H177.409C177.582 25.7376 178.475 27.6096 180.088 28.848C181.47 29.8848 183.371 30.4032 185.79 30.4032C188.238 30.4032 190.168 29.8848 191.608 28.8768C193.048 27.84 193.768 26.4 193.768 24.6144C193.768 22.7424 192.904 21.3024 191.205 20.2656C190.341 19.7472 188.555 19.0848 185.848 18.2784C183.861 17.7024 182.593 17.2704 182.075 16.9824C180.894 16.3488 180.318 15.5136 180.318 14.4768C180.318 13.296 180.808 12.432 181.787 11.856C182.651 11.3376 183.832 11.1072 185.358 11.1072C187.029 11.1072 188.325 11.4528 189.246 12.2016C190.139 12.9216 190.715 14.016 190.974 15.5136H193.307C193.105 13.3536 192.328 11.712 190.945 10.6176C189.621 9.552 187.777 9.0336 185.473 9.0336ZM200.157 10.3008L197.881 11.2512V15.1104H194.886V17.04H197.881V26.5152C197.881 27.6384 198.112 28.4736 198.601 29.0496C199.12 29.6832 200.013 30 201.222 30H203.469V28.0704H201.568C201.049 28.0704 200.675 27.9264 200.473 27.696C200.243 27.4656 200.157 27.0624 200.157 26.5152V17.04H203.843V15.1104H200.157V10.3008ZM212.785 14.7072C210.538 14.7072 208.781 15.456 207.457 17.0112C206.189 18.48 205.556 20.3232 205.556 22.5696C205.556 24.7872 206.189 26.6304 207.457 28.0704C208.781 29.6256 210.538 30.4032 212.785 30.4032C215.002 30.4032 216.788 29.6256 218.141 28.0704C219.38 26.6304 220.013 24.7872 220.013 22.5696C220.013 20.3232 219.38 18.48 218.113 17.0112C216.788 15.456 215.002 14.7072 212.785 14.7072ZM212.785 16.6368C214.34 16.6368 215.578 17.2416 216.5 18.4512C217.277 19.5456 217.681 20.8992 217.681 22.5696C217.681 24.1824 217.277 25.5648 216.5 26.6592C215.578 27.8688 214.34 28.4736 212.785 28.4736C211.201 28.4736 209.962 27.8688 209.098 26.6592C208.292 25.5648 207.917 24.2112 207.917 22.5696C207.917 20.8992 208.292 19.5456 209.098 18.4512C209.962 17.2416 211.201 16.6368 212.785 16.6368ZM229.141 14.7072C226.924 14.7072 225.167 15.4848 223.9 17.0688C222.719 18.5088 222.143 20.352 222.143 22.6272C222.143 24.9024 222.719 26.7456 223.9 28.1568C225.138 29.6544 226.866 30.4032 229.112 30.4032C230.956 30.4032 232.424 29.9136 233.548 28.9632C234.7 27.984 235.42 26.5152 235.765 24.6144H233.461C233.116 27.1776 231.647 28.4736 229.112 28.4736C227.615 28.4736 226.463 27.9264 225.685 26.8896C224.879 25.8528 224.504 24.4128 224.504 22.5984C224.504 20.784 224.908 19.344 225.714 18.2784C226.549 17.184 227.701 16.6368 229.141 16.6368C230.322 16.6368 231.272 16.896 232.021 17.472C232.741 18.048 233.202 18.912 233.404 20.064H235.679C235.42 18.2496 234.728 16.896 233.576 16.0032C232.453 15.1392 230.984 14.7072 229.141 14.7072ZM238.181 9.0336V30H240.485V24.7296L242.846 22.5984L248.664 30H251.63L244.43 21.1008L250.997 15.1104H247.944L240.485 22.0224V9.0336H238.181Z" fill="black"/>
</svg>
