<svg width="216" height="24" viewBox="0 0 216 24" fill="none" xmlns="http://www.w3.org/2000/svg">
<mask id="mask0_58_2558" style="mask-type:alpha" maskUnits="userSpaceOnUse" x="0" y="0" width="104" height="23">
<rect x="0.000671387" y="0.982422" width="103.699" height="21.7277" fill="white"/>
</mask>
<g mask="url(#mask0_58_2558)">
<path d="M16.7018 12.148C16.7018 15.4627 15.7584 18.0007 13.8716 19.7621C11.9848 21.5234 9.26161 22.4045 5.70192 22.4054H0.000610352V2.27734H6.32046C9.6058 2.27734 12.1574 3.14487 13.9751 4.87993C15.7929 6.61498 16.7018 9.03768 16.7018 12.148ZM12.2682 12.2591C12.2682 7.93625 10.3588 5.77467 6.54004 5.77434H4.26937V18.8807H6.10013C10.2114 18.8807 12.2674 16.6735 12.2682 12.2591Z" fill="#252525"/>
<path d="M26.6634 22.6818C24.1845 22.6818 22.2476 21.9976 20.8528 20.6292C19.4579 19.2608 18.7605 17.3244 18.7607 14.82C18.7607 12.2406 19.4056 10.2463 20.6952 8.83703C21.9849 7.42775 23.7676 6.72361 26.0433 6.72461C28.2185 6.72461 29.9118 7.34433 31.1231 8.58378C32.3343 9.82323 32.9403 11.535 32.941 13.7191V15.7556H23.0149C23.0601 16.9475 23.4131 17.8788 24.0739 18.5494C24.7346 19.2201 25.662 19.5551 26.8561 19.5544C27.7823 19.5544 28.6585 19.4582 29.4847 19.2657C30.311 19.0733 31.1736 18.7659 32.0725 18.3437V21.5937C31.3257 21.9656 30.5346 22.241 29.7184 22.4135C28.8838 22.5914 27.8654 22.6808 26.6634 22.6818ZM26.0712 9.71234C25.1813 9.71234 24.4835 9.9944 23.9776 10.5585C23.4718 11.1226 23.183 11.9236 23.1111 12.9614H29.0044C28.9856 11.9241 28.7148 11.1231 28.1919 10.5585C27.669 9.9939 26.9624 9.71184 26.0722 9.71234" fill="#252525"/>
<path d="M39.7364 0.982422H35.5378V22.4046H39.7364V0.982422Z" fill="#252525"/>
<path d="M57.2843 14.6826C57.2843 17.1875 56.6233 19.1472 55.3015 20.5616C53.9797 21.9761 52.1391 22.6832 49.7798 22.6828C48.3034 22.6828 47.0001 22.3589 45.8701 21.711C44.74 21.0632 43.8729 20.1334 43.2688 18.9215C42.6621 17.7106 42.3592 16.2973 42.36 14.6819C42.36 12.1668 43.0165 10.2114 44.3295 8.8157C45.6425 7.41999 47.4869 6.72263 49.863 6.72363C51.3407 6.72363 52.644 7.04514 53.7727 7.68814C54.9014 8.33115 55.769 9.25361 56.3753 10.4555C56.9808 11.6578 57.2837 13.0666 57.2843 14.6819M46.6416 14.6819C46.6416 16.2049 46.8916 17.3569 47.3916 18.1379C47.8915 18.9189 48.706 19.3085 49.8351 19.3067C50.9556 19.3067 51.7614 18.9191 52.2525 18.144C52.7436 17.3688 52.9891 16.2148 52.9891 14.6819C52.9891 13.1589 52.7411 12.0161 52.2452 11.2535C51.7493 10.4909 50.9369 10.1102 49.8082 10.1113C48.6892 10.1113 47.8815 10.4896 47.385 11.2462C46.8886 12.0028 46.6405 13.1482 46.6409 14.6826" fill="#252525"/>
<path d="M59.7287 3.03504C59.7287 1.66663 60.4903 0.982422 62.0134 0.982422C63.5366 0.982422 64.2987 1.66663 64.2997 3.03504C64.2997 3.68575 64.1091 4.19292 63.7279 4.55655C63.3467 4.92017 62.7753 5.10115 62.0137 5.09949C60.4904 5.09949 59.7288 4.41133 59.729 3.03504H59.7287ZM64.107 22.4056H59.9083V7.01216H64.1067L64.107 22.4056Z" fill="#252525"/>
<path d="M74.1515 19.3354C74.8855 19.3354 75.7667 19.175 76.7951 18.8541V21.979C75.7489 22.448 74.4641 22.6819 72.9406 22.6807C71.2616 22.6807 70.039 22.2561 69.2725 21.4069C68.5061 20.5577 68.1229 19.2848 68.1229 17.5881V10.1665H66.113V8.39098L68.4233 6.9873L69.6358 3.73828H72.32V7.01368H76.6287V10.1665H72.3193V17.5876C72.3193 18.183 72.4871 18.6249 72.8217 18.9093C73.1564 19.1937 73.6006 19.3365 74.1508 19.3365" fill="#252525"/>
<path d="M85.5433 19.3352C86.2773 19.3352 87.1584 19.1748 88.1868 18.8539V21.9788C87.1407 22.4478 85.8559 22.6817 84.3326 22.6805C82.6533 22.6805 81.4307 22.2559 80.6646 21.4067C79.8984 20.5575 79.5152 19.2846 79.5149 17.5879V10.1663H77.505V8.39077L79.8164 6.98584L81.0286 3.73682H83.7131V7.01348H88.0225V10.1663H83.7126V17.5874C83.7126 18.1828 83.8801 18.6247 84.215 18.9091C84.5499 19.1935 84.9939 19.3362 85.5441 19.3362" fill="#252525"/>
<path d="M97.4194 22.6818C94.9406 22.6818 93.0037 21.9976 91.6088 20.6292C90.214 19.2608 89.5166 17.3244 89.5168 14.82C89.5168 12.2406 90.1616 10.2463 91.4513 8.83703C92.741 7.42775 94.5237 6.72361 96.7994 6.72461C98.9746 6.72461 100.668 7.34433 101.879 8.58378C103.091 9.82323 103.697 11.5348 103.697 13.7186V15.7556H93.771C93.8162 16.9475 94.1692 17.8788 94.8299 18.5494C95.4907 19.2201 96.4181 19.5551 97.6121 19.5544C98.5384 19.5544 99.4147 19.4582 100.241 19.2657C101.067 19.0733 101.93 18.7659 102.829 18.3437V21.5937C102.082 21.9656 101.291 22.2411 100.474 22.4135C99.6399 22.5914 98.6215 22.6808 97.4194 22.6818ZM96.8273 9.71234C95.9374 9.71234 95.2395 9.9944 94.7337 10.5585C94.2279 11.1226 93.939 11.9236 93.8672 12.9614H99.7594C99.7407 11.9241 99.4699 11.1231 98.9469 10.5585C98.424 9.9939 97.7175 9.71184 96.8273 9.71234Z" fill="#252525"/>
</g>
<path d="M108.576 22.5863C110.724 22.5863 112.465 20.8453 112.465 18.6977C112.465 16.5501 110.724 14.8091 108.576 14.8091C106.428 14.8091 104.687 16.5501 104.687 18.6977C104.687 20.8453 106.428 22.5863 108.576 22.5863Z" fill="#86BC25"/>
<rect x="120.746" y="1.84375" width="0.978557" height="20.3132" fill="#D9D9D9"/>
<g clip-path="url(#clip0_58_2558)">
<path d="M130.004 21.6979V6.98722H134.286V21.6979H130.004ZM137.611 16.5088C139.274 17.8691 141.138 18.5744 143.254 18.5744C144.463 18.5744 145.37 18.3729 145.974 17.9698C146.579 17.5668 146.881 17.0126 146.881 16.3577C146.881 15.8035 146.629 15.2494 146.176 14.796C145.722 14.2922 144.412 13.6372 142.397 12.7808C139.173 11.4206 137.561 9.45579 137.561 6.83608C137.561 4.92169 138.266 3.4607 139.727 2.35236C141.188 1.2944 143.102 0.740234 145.521 0.740234C147.536 0.740234 149.198 0.992129 150.609 1.5463V5.67737C149.249 4.72017 147.586 4.26676 145.773 4.26676C144.715 4.26676 143.808 4.46828 143.203 4.87131C142.548 5.27434 142.246 5.77813 142.246 6.48343C142.246 7.0376 142.448 7.49101 142.901 7.94442C143.354 8.39783 144.463 9.00238 146.176 9.75806C148.241 10.6145 149.652 11.5717 150.407 12.5289C151.163 13.4861 151.566 14.6448 151.566 16.0051C151.566 17.9698 150.861 19.4812 149.45 20.5392C148.04 21.5971 146.075 22.1009 143.505 22.1009C141.138 22.1009 139.223 21.6979 137.712 20.9422V16.5088H137.611ZM162.448 21.5467C161.793 21.8994 160.836 22.1009 159.526 22.1009C156.402 22.1009 154.841 20.4384 154.841 17.1638V10.2115H152.423V6.98722H154.841V3.76297L159.073 2.55388V6.98722H162.448V10.2115H159.123V16.4081C159.123 17.9698 159.727 18.7759 160.987 18.7759C161.44 18.7759 161.944 18.6248 162.498 18.3729V21.5467H162.448Z" fill="#252525"/>
<path d="M130.407 0.639703C129.953 1.04273 129.701 1.5969 129.701 2.25183C129.701 2.90676 129.953 3.41054 130.407 3.86396C130.86 4.31737 131.465 4.51888 132.17 4.51888C132.926 4.51888 133.53 4.31737 133.984 3.91433C134.437 3.5113 134.689 2.95713 134.689 2.30221C134.689 1.64728 134.437 1.09311 133.984 0.690082C133.53 0.236672 132.926 0.0351562 132.17 0.0351562C131.465 0.0351562 130.86 0.236672 130.407 0.639703Z" fill="#86BC25"/>
<path d="M179.625 10.3633H176.199C175.594 10.3633 175.09 10.8671 175.09 11.4212C175.09 11.9754 175.594 12.4792 176.199 12.4792H177.055L175.242 14.2425L173.529 12.6807C173.327 12.4792 173.025 12.3784 172.773 12.3784C172.471 12.3784 172.169 12.4792 171.967 12.6807L168.138 16.308C167.937 16.5095 167.836 16.7614 167.836 17.0637C167.836 17.366 167.937 17.6178 168.189 17.8194C168.39 18.0209 168.692 18.1216 168.944 18.1216C169.247 18.1216 169.498 18.0209 169.7 17.8194L172.773 14.8974L174.436 16.5095C174.637 16.711 174.939 16.8118 175.191 16.8118C175.494 16.8118 175.796 16.711 175.997 16.5095L178.617 13.9906V14.7462C178.617 15.3508 179.121 15.8042 179.725 15.8042C180.33 15.8042 180.834 15.3004 180.834 14.7462V11.4716C180.834 11.1693 180.733 10.9174 180.531 10.7159C180.33 10.5144 180.028 10.4137 179.725 10.4137C179.675 10.3633 179.625 10.3633 179.625 10.3633Z" fill="#86BC25"/>
<path d="M174.335 4.51953C168.743 4.51953 164.159 8.9025 164.159 14.2427C164.159 19.6332 168.693 23.9658 174.335 23.9658C179.978 23.9658 184.512 19.5828 184.512 14.2427C184.512 8.9025 179.927 4.51953 174.335 4.51953ZM182.295 14.2427C182.295 18.4241 178.718 21.8499 174.335 21.8499C169.952 21.8499 166.375 18.4241 166.375 14.2427C166.375 10.0612 169.952 6.63545 174.335 6.63545C178.718 6.63545 182.295 10.0612 182.295 14.2427Z" fill="#86BC25"/>
<path d="M198.569 21.5464C197.561 22.151 196.1 22.4533 194.186 22.4533C191.919 22.4533 190.156 21.748 188.745 20.3877C187.385 19.0275 186.679 17.2642 186.679 15.0979C186.679 12.579 187.435 10.6142 188.896 9.2036C190.407 7.74262 192.372 7.03731 194.841 7.03731C196.503 7.03731 197.763 7.28921 198.569 7.74262V11.4203C197.561 10.715 196.503 10.3623 195.345 10.3623C194.035 10.3623 192.977 10.7654 192.171 11.5714C191.365 12.3775 190.962 13.4858 190.962 14.846C190.962 16.2063 191.314 17.2642 192.07 18.0199C192.826 18.7756 193.833 19.1786 195.143 19.1786C196.302 19.1786 197.41 18.826 198.518 18.0703V21.5464H198.569ZM216 22.1006H210.811L205.924 14.846H205.874V22.1006H201.592V0.336914H205.874V14.1911H205.924L210.509 7.38996H215.647L210.206 14.3423L216 22.1006Z" fill="#252525"/>
</g>
<defs>
<clipPath id="clip0_58_2558">
<rect width="86.2989" height="23.93" fill="white" transform="translate(129.701 0.0351562)"/>
</clipPath>
</defs>
</svg>
