<svg width="32" height="32" xmlns="http://www.w3.org/2000/svg"><path d="M16.3092 20.0026L16.902 22.2147C17.5533 22.5444 18 23.2202 18 24.0003C18 25.1048 17.1045 26.0002 16 26.0002C14.8953 26.0002 14 25.1048 14 24.0003C14 23.5959 14.1198 23.2196 14.3262 22.905L13.5846 20.1375C14.1894 20.0702 14.795 20.0266 15.398 20.009L16 20.0002C16.1029 20.0002 16.2061 20.001 16.3092 20.0026ZM16.0001 5.3335C19.3057 5.3335 21.8883 5.70961 23.8454 6.19612L24.5103 6.37198C24.7234 6.43184 24.928 6.4928 25.1242 6.55442L25.6881 6.74083L26.2636 6.94718C26.3526 6.98015 26.4382 7.01241 26.5206 7.04399L26.9776 7.22534L27.3644 7.39097C27.4234 7.41731 27.4798 7.44302 27.5337 7.46813L27.8283 7.61162L28.0702 7.74129C28.1065 7.7618 28.1409 7.78175 28.1736 7.80119L28.3496 7.91156L28.6032 8.09734L28.833 8.29234C29.2833 8.65263 29.451 9.26164 29.2485 9.80166L25.2485 20.4683C24.9977 21.1372 24.2474 21.4854 23.5729 21.2632C21.2514 20.5088 18.7533 20.0392 16.3092 20.0026L14.1821 12.0639C13.9914 11.3526 13.2604 10.9305 12.5491 11.1211C11.8378 11.3117 11.4157 12.0428 11.6063 12.7541L13.5846 20.1375C12.0901 20.3037 10.6006 20.6145 9.16712 21.035L8.42168 21.2651C7.74139 21.4916 7.00337 21.1398 6.7516 20.4683L2.7516 9.80166C2.54909 9.26164 2.71675 8.65263 3.16711 8.29234C4.06917 7.57068 5.23761 7.11454 6.31201 6.74083C6.67145 6.61581 7.06362 6.4917 7.48979 6.37198L8.1547 6.19612C10.1118 5.70961 12.6944 5.3335 16.0001 5.3335Z"/></svg>