<svg width="32" height="32" xmlns="http://www.w3.org/2000/svg"><path d="M9.14451 28.3696C8.87965 28.3696 8.66495 28.1549 8.66495 27.8901V27.2791C8.66495 27.0142 8.87965 26.7995 9.14451 26.7995H23.4911C23.756 26.7995 23.9707 27.0142 23.9707 27.2791V27.8901C23.9707 28.1549 23.756 28.3696 23.4911 28.3696H9.14451ZM6.3165 23.8427C4.99223 23.8427 3.9187 22.7691 3.9187 21.4449V6.66294C3.9187 5.33867 4.99223 4.26514 6.3165 4.26514H25.6665C26.9908 4.26514 28.0643 5.33867 28.0643 6.66294V21.4449C28.0643 22.7691 26.9908 23.8427 25.6665 23.8427H6.3165ZM10.7878 11.9813C10.0984 12.5483 9.53669 13.2546 9.13938 14.0539C9.52797 14.8527 10.0826 15.5593 10.7663 16.1265C12.1533 17.371 13.9512 18.0593 15.8147 18.0593C17.6782 18.0593 19.476 17.371 20.8631 16.1265C21.5466 15.5594 22.1011 14.8528 22.4893 14.0539C22.0924 13.2545 21.5309 12.5482 20.8415 11.9813C19.4623 10.7394 17.6726 10.0514 15.8166 10.0496C13.9592 10.0497 12.1676 10.7379 10.7878 11.9813ZM11.6538 15.13C11.2928 14.8088 10.9668 14.4503 10.6814 14.0604C10.9728 13.667 11.3048 13.3054 11.6721 12.9817C12.8069 11.954 14.2833 11.3848 15.8143 11.3848C17.3454 11.3848 18.8218 11.954 19.9566 12.9817C20.324 13.305 20.6561 13.6664 20.9472 14.0598C20.6625 14.4504 20.3365 14.8092 19.9749 15.13C18.8324 16.1569 17.3505 16.7251 15.8143 16.7251C14.2782 16.7251 12.7963 16.1569 11.6538 15.13ZM14.4801 14.0539C14.4801 14.3178 14.5584 14.5759 14.705 14.7953C14.8517 15.0148 15.0601 15.1858 15.304 15.2868C15.5478 15.3879 15.8161 15.4143 16.075 15.3628C16.3339 15.3113 16.5717 15.1842 16.7583 14.9976C16.945 14.8109 17.0721 14.5731 17.1236 14.3143C17.175 14.0554 17.1486 13.7871 17.0476 13.5432C16.9466 13.2993 16.7756 13.0909 16.5561 12.9443C16.3366 12.7976 16.0786 12.7194 15.8147 12.7194C15.4609 12.7199 15.1217 12.8607 14.8716 13.1108C14.6214 13.361 14.4806 13.7001 14.4801 14.0539Z"/></svg>