<svg width="32" height="32" xmlns="http://www.w3.org/2000/svg"><path fill-rule="evenodd" clip-rule="evenodd" d="M4 6.66667C4 5.19391 5.19391 4 6.66667 4H25.3333C26.8061 4 28 5.19391 28 6.66667V25.3333C28 26.8061 26.8061 28 25.3333 28H6.66667C5.19391 28 4 26.8061 4 25.3333V6.66667ZM18.5852 10.2063C18.1145 9.02964 16.4275 9.09539 16.0495 10.3047L13.7137 17.7793L13.1963 16.7444C12.9681 16.2881 12.5019 16 11.9918 16H9.33333C8.59696 16 8 16.5969 8 17.3333C8 18.0697 8.59696 18.6667 9.33333 18.6667H11.176L12.7926 21.9C13.3347 22.9841 14.9209 22.8563 15.2825 21.6995L17.4877 14.6428L18.7587 17.8201C18.9632 18.3315 19.4584 18.6667 20.0091 18.6667H22.6667C23.4031 18.6667 24 18.0697 24 17.3333C24 16.5969 23.4031 16 22.6667 16H20.9027L18.5852 10.2063Z"/></svg>