<!-- <svg xmlns="http://www.w3.org/2000/svg" width="40" height="40" viewBox="0 0 40 40">
  <path transform="scale(0.0320625 0.0320625)" d="M682 342h128v84h-212v-212h84v128zM598 810v-212h212v84h-128v128h-84zM342 342v-128h84v212h-212v-84h128zM214 682v-84h212v212h-84v-128h-128z"></path>
</svg> -->

<!-- 退出全屏 icon -->

<svg width="48" height="48" viewBox="0 0 48 48" fill="none" xmlns="http://www.w3.org/2000/svg">
  <path d="M19 13.75H18.75V14V18.75H14H13.75V19V21V21.25H14H21H21.25V21V14V13.75H21H19ZM29.25 14V13.75H29H27H26.75V14V21V21.25H27H34H34.25V21V19V18.75H34H29.25V14ZM18.75 34V34.25H19H21H21.25V34V27V26.75H21H14H13.75V27V29V29.25H14H18.75V34ZM29 34.25H29.25V34V29.25H34H34.25V29V27V26.75H34H27H26.75V27V34V34.25H27H29Z" fill="white" stroke="white" stroke-width="0.5"/>
</svg>