<!-- <svg xmlns="http://www.w3.org/2000/svg" width="40" height="40" viewBox="0 0 40 40">
  <path transform="translate(2,2) scale(0.0320625 0.0320625)" d="M598,214h170v596h-170v-596zM256 810v-596h170v596h-170z"></path>
</svg> -->

<!-- 小的 暂停 icon -->

<svg width="48" height="48" viewBox="0 0 48 48" fill="none" xmlns="http://www.w3.org/2000/svg">
  <g clip-path="url(#clip0_135_25527)">
    <path d="M20.5 13.5C21.1443 13.5 21.6667 14.0223 21.6667 14.6667V33.3333C21.6667 33.9777 21.1443 34.5 20.5 34.5H18.1667C17.5223 34.5 17 33.9777 17 33.3333V14.6667C17 14.0223 17.5223 13.5 18.1667 13.5H20.5ZM29.8333 13.5C30.4777 13.5 31 14.0223 31 14.6667V33.3333C31 33.9777 30.4777 34.5 29.8333 34.5H27.5C26.8557 34.5 26.3333 33.9777 26.3333 33.3333V14.6667C26.3333 14.0223 26.8557 13.5 27.5 13.5H29.8333Z" fill="white"/>
  </g>
  <defs>
    <clipPath id="clip0_135_25527">
      <rect width="28" height="28" fill="white" transform="translate(10 10)"/>
    </clipPath>
  </defs>
</svg>