<!-- <svg xmlns="http://www.w3.org/2000/svg" width="40" height="40" viewBox="0 0 40 40">
  <path transform="scale(0.0320625 0.0320625)" d="M598 214h212v212h-84v-128h-128v-84zM726 726v-128h84v212h-212v-84h128zM214 426v-212h212v84h-128v128h-84zM298 598v128h128v84h-212v-212h84z"></path>
</svg> -->

<!-- 全屏 icon -->

<svg width="48" height="48" viewBox="0 0 48 48" fill="none" xmlns="http://www.w3.org/2000/svg">
  <path d="M13.333 21.332H15.9997V15.9987H21.333V13.332H13.333V21.332Z" fill="white"/>
  <path d="M26.666 13.332V15.9987H31.9994V21.332H34.666V13.332H26.666Z" fill="white"/>
  <path d="M31.9994 32.0013H26.666V34.668H34.666V26.668H31.9994V32.0013Z" fill="white"/>
  <path d="M15.9997 26.668H13.333V34.668H21.333V32.0013H15.9997V26.668Z" fill="white"/>
</svg>