<!-- <svg xmlns="http://www.w3.org/2000/svg" width="28" height="28" viewBox="0 0 28 28">
  <path transform="scale(0.0220625 0.0220625)" d="M358.4 358.4h-204.8v307.2h204.8l256 256v-819.2l-256 256z"></path>
  <path transform="scale(0.0220625 0.0220625)" d="M795.648 693.248l-72.704-72.704c27.756-27.789 44.921-66.162 44.921-108.544s-17.165-80.755-44.922-108.546l0.002 0.002 72.704-72.704c46.713 46.235 75.639 110.363 75.639 181.248s-28.926 135.013-75.617 181.227l-0.021 0.021zM795.648 693.248l-72.704-72.704c27.756-27.789 44.921-66.162 44.921-108.544s-17.165-80.755-44.922-108.546l0.002 0.002 72.704-72.704c46.713 46.235 75.639 110.363 75.639 181.248s-28.926 135.013-75.617 181.227l-0.021 0.021z"></path>
</svg> -->

<!-- 音量 较低 -->

<svg width="48" height="48" viewBox="0 0 48 48" fill="none" xmlns="http://www.w3.org/2000/svg">
  <path d="M10.5 19.8932V27.8932H15.8333L22.5 34.5599V13.2266L15.8333 19.8932H10.5ZM28.5 23.8932C28.5 21.5332 27.14 19.5066 25.1667 18.5199V29.2532C27.14 28.2799 28.5 26.2532 28.5 23.8932Z" fill="white"/>
</svg>