<!-- <svg xmlns="http://www.w3.org/2000/svg" width="28" height="28" viewBox="0 0 28 28">
  <path transform="scale(0.0220625 0.0220625)" d="M358.4 358.4h-204.8v307.2h204.8l256 256v-819.2l-256 256z"></path>
  <path transform="scale(0.0220625 0.0220625)" d="M920.4 439.808l-108.544-109.056-72.704 72.704 109.568 108.544-109.056 108.544 72.704 72.704 108.032-109.568 108.544 109.056 72.704-72.704-109.568-108.032 109.056-108.544-72.704-72.704-108.032 109.568z"></path>
</svg> -->

<!-- 静音 -->

<svg width="48" height="48" viewBox="0 0 48 48" fill="none" xmlns="http://www.w3.org/2000/svg">
  <path d="M28.6406 23.9727C28.6406 21.6127 27.2806 19.586 25.3073 18.5993V21.546L28.574 24.8127C28.614 24.546 28.6406 24.266 28.6406 23.9727ZM31.974 23.9727C31.974 25.226 31.7073 26.3993 31.254 27.4927L33.2673 29.506C34.1473 27.8527 34.6406 25.9727 34.6406 23.9727C34.6406 18.266 30.654 13.4927 25.3073 12.2927V15.026C29.1606 16.1727 31.974 19.746 31.974 23.9727ZM12.334 11.9727L10.6406 13.6527L16.934 19.9593H10.6406V27.9593H15.974L22.6406 34.626V25.6527L28.3073 31.3193C27.414 32.0127 26.414 32.5593 25.3073 32.8927V35.6393C27.1473 35.226 28.814 34.3727 30.2273 33.226L32.9473 35.9593L34.6406 34.266L22.6406 22.266L12.3473 11.9727H12.334ZM22.6273 13.2927L19.8406 16.066L22.6273 18.8527V13.306V13.2927Z" fill="white"/>
</svg>
